<svg width="336" height="94" viewBox="0 0 336 94" fill="none" xmlns="http://www.w3.org/2000/svg">
<path d="M118.59 34.8305L118.77 39.1562C121.632 35.7888 125.492 34.1095 130.345 34.1095C135.801 34.1095 139.515 36.2021 141.489 40.3828C142.786 38.5056 144.474 36.9934 146.558 35.8372C148.637 34.6854 151.095 34.1051 153.935 34.1051C162.494 34.1051 166.846 38.6375 166.991 47.7023V73.846H160.318V48.098C160.318 45.3108 159.68 43.2227 158.405 41.8423C157.131 40.4619 154.99 39.7673 151.987 39.7673C149.512 39.7673 147.455 40.5059 145.819 41.983C144.184 43.4601 143.234 45.4515 142.971 47.9529V73.846H136.262V48.2782C136.262 42.6028 133.484 39.7673 127.932 39.7673C123.557 39.7673 120.564 41.6313 118.95 45.3548V73.8416H112.277V34.8217H118.59V34.8305Z" fill="#FA8072"/>
<path d="M178.557 24.482C178.557 23.4005 178.887 22.4861 179.551 21.7432C180.21 21.0003 181.191 20.6266 182.492 20.6266C183.793 20.6266 184.778 21.0003 185.45 21.7432C186.123 22.4905 186.461 23.4005 186.461 24.482C186.461 25.5634 186.123 26.4646 185.45 27.1856C184.778 27.9066 183.793 28.267 182.492 28.267C181.191 28.267 180.215 27.9066 179.551 27.1856C178.891 26.4646 178.557 25.5634 178.557 24.482ZM185.771 73.8504H179.098V34.8305H185.771V73.8504Z" fill="#73A9FA"/>
<path d="M204.235 34.8305L204.45 39.7365C207.431 35.9866 211.326 34.1095 216.135 34.1095C224.382 34.1095 228.541 38.7606 228.612 48.0672V73.8504H221.938V48.032C221.916 45.2185 221.27 43.1391 220.008 41.7939C218.747 40.4487 216.782 39.7761 214.113 39.7761C211.95 39.7761 210.051 40.352 208.416 41.5082C206.78 42.66 205.506 44.1766 204.591 46.0538V73.8592H197.918V34.8393H204.231L204.235 34.8305Z" fill="#FA8072"/>
<path d="M247.396 73.8504H240.723V18.4592H247.396V73.8504Z" fill="#FA8072"/>
<path d="M259.587 39.0243C259.587 37.9429 259.916 37.0285 260.58 36.2856C261.24 35.5426 262.22 35.1689 263.521 35.1689C264.822 35.1689 265.807 35.5426 266.48 36.2856C267.152 37.0329 267.491 37.9429 267.491 39.0243C267.491 40.1058 267.152 41.007 266.48 41.728C265.807 42.4489 264.822 42.8094 263.521 42.8094C262.22 42.8094 261.244 42.4489 260.58 41.728C259.921 41.007 259.587 40.1058 259.587 39.0243ZM266.796 73.8504H260.123V49.2321H266.796V73.8504Z" fill="#73A9FA"/>
<path d="M282.231 73.8504V39.9871H276.063V34.8304H282.231V30.8255C282.231 26.6404 283.348 23.4093 285.585 21.1233C287.823 18.8417 290.984 17.6987 295.068 17.6987C296.606 17.6987 298.132 17.901 299.648 18.3098L299.288 23.6862C298.158 23.4708 296.958 23.3609 295.683 23.3609C293.52 23.3609 291.85 23.994 290.672 25.2601C289.493 26.5261 288.904 28.3417 288.904 30.7025V34.826H297.235V39.9827H288.904V73.846H282.231V73.8504Z" fill="#FA8072"/>
<path d="M320.781 73.8503C315.492 73.8503 311.188 72.1139 307.869 68.6409C304.55 65.168 302.893 60.5213 302.893 54.7008V53.4743C302.893 49.6057 303.631 46.146 305.108 43.1083C306.586 40.0661 308.656 37.6878 311.311 35.969C313.967 34.2501 316.846 33.3884 319.95 33.3884C325.023 33.3884 328.966 35.059 331.78 38.4C334.593 41.7411 336 46.5284 336 52.7533V55.5317H309.566C309.663 59.3783 310.788 62.4864 312.938 64.8559C315.088 67.2254 317.826 68.4079 321.141 68.4079C323.497 68.4079 325.493 67.9288 327.129 66.966C328.764 66.0033 330.193 64.7284 331.419 63.1414L335.494 66.3154C332.224 71.3401 327.322 73.8503 320.781 73.8503ZM319.95 38.8704C317.259 38.8704 314.995 39.8507 313.171 41.8114C311.342 43.7721 310.212 46.5196 309.782 50.0497H329.327V49.5442C329.133 46.1548 328.219 43.5259 326.588 41.6663C324.953 39.8024 322.741 38.8704 319.954 38.8704H319.95Z" fill="#FA8072"/>
<path d="M91.4393 35.9163C91.4393 37.0417 91.2943 38.1407 91.0305 39.1826C90.8063 40.0443 90.4986 40.8751 90.1161 41.662C87.9928 45.9966 83.5351 48.9816 78.3785 48.9816H75.1121V86.5377C75.1121 89.2413 72.9185 91.4349 70.2149 91.4349C67.5112 91.4349 65.3176 89.2413 65.3176 86.5377V48.9816H34.2941V52.2479C34.2941 54.191 33.8721 56.033 33.1116 57.6859C31.4894 61.2248 28.3374 63.9108 24.4996 64.8999C23.4577 65.1681 22.3587 65.3088 21.2333 65.3088C14.8853 65.3088 9.59673 60.7808 8.41857 54.7801C8.25592 53.9624 8.17239 53.1139 8.17239 52.2479C8.17239 51.1225 8.31746 50.0235 8.58123 48.9816C10.032 43.3502 15.1446 39.1826 21.2333 39.1826H24.4996V26.1218H4.89728C2.19366 26.1218 0 23.9281 0 21.2245C0 18.5209 2.19366 16.3272 4.89728 16.3272H24.4908V13.0609C24.4908 6.97225 28.6539 1.85956 34.2898 0.408839C35.3316 0.140676 36.4307 0 37.5561 0C39.2222 0 40.818 0.312125 42.2863 0.88362C47.1616 2.77835 50.6213 7.51737 50.6213 13.0653C50.6213 14.1907 50.4763 15.2897 50.2125 16.3316C48.7618 21.963 43.6491 26.1305 37.5605 26.1305H34.2941V39.1914H65.3176V35.9251C65.3176 34.8041 65.4583 33.7183 65.722 32.6808C66.3814 30.1046 67.8058 27.8362 69.7401 26.1305C71.2567 24.7897 73.0943 23.7962 75.1165 23.2731C76.1584 23.0049 77.2574 22.8642 78.3829 22.8642C81.6975 22.8642 84.7221 24.0951 87.0256 26.1305C89.738 28.5264 91.4481 32.0257 91.4481 35.9295L91.4393 35.9163Z" fill="#FA8072"/>
</svg>
